{
  "accessors": [
    {
      "bufferView": 1,
      "componentType": 5126,
      "count": 9607,
      "max": [
        21.0244140625,
        17.337747573852539,
        0.01915300078690052
      ],
      "min": [
        -0.13723200559616089,
        5.8943610191345215,
        -0.01915300078690052
      ],
      "type": "VEC3"
    },
    {
      "bufferView": 1,
      "byteOffset": 115284,
      "componentType": 5126,
      "count": 9607,
      "max": [
        1,
        1,
        1
      ],
      "min": [
        -1,
        -1,
        -1
      ],
      "type": "VEC3"
    },
    {
      "bufferView": 0,
      "componentType": 5125,
      "count": 13590,
      "max": [
        9606
      ],
      "min": [
        0
      ],
      "type": "SCALAR"
    },
    {
      "bufferView": 1,
      "byteOffset": 230568,
      "componentType": 5126,
      "count": 5652,
      "max": [
        21.606819152832031,
        25.143825531005859,
        0.01915300078690052
      ],
      "min": [
        -2.9655840396881104,
        5.0330939292907715,
        -0.022710999473929405
      ],
      "type": "VEC3"
    },
    {
      "bufferView": 1,
      "byteOffset": 298392,
      "componentType": 5126,
      "count": 5652,
      "max": [
        0.99985033273696899,
        0.99985033273696899,
        1
      ],
      "min": [
        -0.99985033273696899,
        -0.99985033273696899,
        -1
      ],
      "type": "VEC3"
    },
    {
      "bufferView": 0,
      "byteOffset": 54360,
      "componentType": 5125,
      "count": 14886,
      "max": [
        5651
      ],
      "min": [
        0
      ],
      "type": "SCALAR"
    },
    {
      "bufferView": 1,
      "byteOffset": 366216,
      "componentType": 5126,
      "count": 3304,
      "max": [
        20.562637329101562,
        24.248577117919922,
        0
      ],
      "min": [
        4.2325730323791504,
        14.765920639038086,
        0
      ],
      "type": "VEC3"
    },
    {
      "bufferView": 1,
      "byteOffset": 405864,
      "componentType": 5126,
      "count": 3304,
      "max": [
        0,
        -0,
        1
      ],
      "min": [
        0,
        -0,
        1
      ],
      "type": "VEC3"
    },
    {
      "bufferView": 0,
      "byteOffset": 113904,
      "componentType": 5125,
      "count": 11136,
      "max": [
        3303
      ],
      "min": [
        0
      ],
      "type": "SCALAR"
    },
    {
      "bufferView": 1,
      "byteOffset": 445512,
      "componentType": 5126,
      "count": 6359,
      "max": [
        7.4874792098999023,
        22.636756896972656,
        0.064792998135089874
      ],
      "min": [
        2.5225279331207275,
        8.5067386627197266,
        -0.064792998135089874
      ],
      "type": "VEC3"
    },
    {
      "bufferView": 1,
      "byteOffset": 521820,
      "componentType": 5126,
      "count": 6359,
      "max": [
        1,
        1,
        1
      ],
      "min": [
        -1,
        -1,
        -1
      ],
      "type": "VEC3"
    },
    {
      "bufferView": 0,
      "byteOffset": 158448,
      "componentType": 5125,
      "count": 10413,
      "max": [
        6358
      ],
      "min": [
        0
      ],
      "type": "SCALAR"
    }
  ],
  "asset": {
    "generator": "Sketchfab (OSG glTF plugin)",
    "version": "2.0"
  },
  "bufferViews": [
    {
      "buffer": 0,
      "byteLength": 200100,
      "byteOffset": 0,
      "name": "ScalarBufferView",
      "target": 34963
    },
    {
      "buffer": 0,
      "byteLength": 598128,
      "byteOffset": 200100,
      "byteStride": 12,
      "name": "Vec4BufferView",
      "target": 34962
    }
  ],
  "buffers": [
    {
      "byteLength": 798228,
      "uri": "scene.bin"
    }
  ],
  "extensionsRequired": [
    "KHR_materials_pbrSpecularGlossiness"
  ],
  "extensionsUsed": [
    "KHR_materials_pbrSpecularGlossiness"
  ],
  "materials": [
    {
      "doubleSided": true,
      "emissiveFactor": [
        1,
        1,
        1
      ],
      "extensions": {
        "KHR_materials_pbrSpecularGlossiness": {
          "diffuseFactor": [
            1,
            1,
            1,
            1
          ],
          "glossinessFactor": 0,
          "specularFactor": [
            0,
            0,
            0
          ]
        }
      },
      "name": "Material.002",
      "occlusionFactor": 1
    }
  ],
  "meshes": [
    {
      "name": "Circle.002",
      "primitives": [
        {
          "attributes": {
            "NORMAL": 1,
            "POSITION": 0
          },
          "indices": 2,
          "material": 0,
          "mode": 4
        },
        {
          "attributes": {
            "NORMAL": 4,
            "POSITION": 3
          },
          "indices": 5,
          "material": 0,
          "mode": 4
        },
        {
          "attributes": {
            "NORMAL": 7,
            "POSITION": 6
          },
          "indices": 8,
          "material": 0,
          "mode": 4
        },
        {
          "attributes": {
            "NORMAL": 10,
            "POSITION": 9
          },
          "indices": 11,
          "material": 0,
          "mode": 4
        }
      ]
    }
  ],
  "nodes": [
    {
      "children": [
        1
      ],
      "name": "RootNode (gltf orientation matrix)",
      "rotation": [
        -0.70710678118654746,
        -0,
        -0,
        0.70710678118654757
      ]
    },
    {
      "children": [
        2
      ],
      "name": "RootNode (model correction matrix)"
    },
    {
      "children": [
        3
      ],
      "name": "94e3d41c0e184ce18f8528ed5c7fa047.obj.cleaner"
    },
    {
      "mesh": 0,
      "name": "Circle.002"
    }
  ],
  "scene": 0,
  "scenes": [
    {
      "name": "OSG_Scene",
      "nodes": [
        0
      ]
    }
  ]
}

