{"accessors":[{"bufferView":2,"componentType":5126,"count":1263,"max":[51.55889892578125,112.98102569580078,51.592098236083984],"min":[-51.55889892578125,0.98822402954101562,-51.592098236083984],"type":"VEC3"},{"bufferView":2,"byteOffset":15156,"componentType":5126,"count":1263,"max":[1,1,1],"min":[-1,-1,-1],"type":"VEC3"},{"bufferView":1,"componentType":5126,"count":1263,"max":[0.98997688293457031,0.98157215118408203],"min":[0.012075662612915039,0.016878366470336914],"type":"VEC2"},{"bufferView":3,"componentType":5126,"count":1263,"max":[1,0.99999850988388062,1,1],"min":[-1,-0.99999850988388062,-1,-1],"type":"VEC4"},{"bufferView":0,"componentType":5125,"count":1788,"max":[1262],"min":[0],"type":"SCALAR"}],"asset":{"generator":"Sketchfab (OSG glTF plugin)","version":"2.0"},"bufferViews":[{"buffer":0,"byteLength":7152,"byteOffset":0,"name":"ScalarBufferView","target":34962},{"buffer":0,"byteLength":10104,"byteOffset":7152,"byteStride":8,"name":"Vec2BufferView","target":34962},{"buffer":0,"byteLength":30312,"byteOffset":17256,"byteStride":12,"name":"Vec3BufferView","target":34962},{"buffer":0,"byteLength":20208,"byteOffset":47568,"byteStride":16,"name":"Vec4BufferView","target":34962}],"buffers":[{"byteLength":67776,"uri":"scene.bin"}],"extensionsRequired":["KHR_materials_pbrSpecularGlossiness"],"extensionsUsed":["KHR_materials_pbrSpecularGlossiness"],"images":[{"uri":"textures\/lambert3_diffuse.png"},{"uri":"textures\/lambert3_occlusion.png"},{"uri":"textures\/lambert3_normal.png"}],"materials":[{"doubleSided":true,"emissiveFactor":[0,0,0],"extensions":{"KHR_materials_pbrSpecularGlossiness":{"diffuseFactor":[1,1,1,1],"diffuseTexture":{"index":0,"texCoord":0},"glossinessFactor":0,"specularFactor":[0.11,0.11,0.11]}},"name":"lambert3","normalTexture":{"index":2,"scale":1,"texCoord":0},"occlusionTexture":{"index":1,"strength":1,"texCoord":0}}],"meshes":[{"name":"Low_KR8","primitives":[{"attributes":{"NORMAL":1,"POSITION":0,"TANGENT":3,"TEXCOORD_0":2},"indices":4,"material":0,"mode":4}]}],"nodes":[{"children":[1],"name":"RootNode (gltf orientation matrix)","rotation":[-0.70710678118654746,-0,-0,0.70710678118654757]},{"children":[2],"name":"RootNode (model correction matrix)"},{"children":[3],"matrix":[1,0,0,0,0,0,1,0,0,-1,0,0,0,0,0,1],"name":"4eeb6080c2704dfaac82c868c1627b3c.fbx"},{"children":[4],"name":""},{"children":[5],"name":"RootNode"},{"children":[6],"name":"Low_KR8"},{"mesh":0,"name":"Low_KR8"}],"samplers":[{"magFilter":9729,"minFilter":9987,"wrapS":10497,"wrapT":10497}],"scene":0,"scenes":[{"name":"OSG_Scene","nodes":[0]}],"textures":[{"sampler":0,"source":0},{"sampler":0,"source":1},{"sampler":0,"source":2}]}
