{"accessors":[{"bufferView":2,"componentType":5126,"count":83,"max":[1.0328848361968994,1.4422646760940552,2.1729884147644043],"min":[-1.1564083099365234,-0.4950212836265564,0.88820958137512207],"type":"VEC3"},{"bufferView":2,"byteOffset":996,"componentType":5126,"count":83,"max":[1,0.8658822774887085,0.86601853370666504],"min":[-1,-0.86605328321456909,-0.86604732275009155],"type":"VEC3"},{"bufferView":3,"componentType":5126,"count":83,"max":[1,1,1,1],"min":[1,1,1,1],"type":"VEC4"},{"bufferView":1,"componentType":5126,"count":83,"max":[0.9921410083770752,0.37244832515716553],"min":[0.64415657520294189,0.058018248528242111],"type":"VEC2"},{"bufferView":3,"byteOffset":1328,"componentType":5126,"count":83,"max":[1,0.86604738235473633,0.86605334281921387,1],"min":[-1,-0.86604732275009155,-0.5000489354133606,1],"type":"VEC4"},{"bufferView":0,"componentType":5125,"count":96,"max":[82],"min":[0],"type":"SCALAR"},{"bufferView":2,"byteOffset":1992,"componentType":5126,"count":268,"max":[1.2006574869155884,1.8052432537078857,1.1855084896087646],"min":[-1.362937331199646,-2.5407953262329102,-0.28763356804847717],"type":"VEC3"},{"bufferView":2,"byteOffset":5208,"componentType":5126,"count":268,"max":[1,1,1],"min":[-1,-1,0],"type":"VEC3"},{"bufferView":3,"byteOffset":2656,"componentType":5126,"count":268,"max":[1,1,1,1],"min":[1,1,1,1],"type":"VEC4"},{"bufferView":1,"byteOffset":664,"componentType":5126,"count":268,"max":[0.97695881128311157,0.86561983823776245],"min":[0.0099999997764825821,0.0099999997764825821],"type":"VEC2"},{"bufferView":3,"byteOffset":6944,"componentType":5126,"count":268,"max":[1,1,1,1],"min":[-1,-1,-0.70047581195831299,1],"type":"VEC4"},{"bufferView":0,"byteOffset":384,"componentType":5125,"count":426,"max":[267],"min":[0],"type":"SCALAR"}],"asset":{"generator":"Sketchfab (OSG glTF plugin)","version":"2.0"},"bufferViews":[{"buffer":0,"byteLength":2088,"byteOffset":0,"name":"ScalarBufferView","target":34962},{"buffer":0,"byteLength":2808,"byteOffset":2088,"byteStride":8,"name":"Vec2BufferView","target":34962},{"buffer":0,"byteLength":8424,"byteOffset":4896,"byteStride":12,"name":"Vec3BufferView","target":34962},{"buffer":0,"byteLength":11232,"byteOffset":13320,"byteStride":16,"name":"Vec4BufferView","target":34962}],"buffers":[{"byteLength":24552,"uri":"scene.bin"}],"extensionsRequired":["KHR_materials_pbrSpecularGlossiness"],"extensionsUsed":["KHR_materials_pbrSpecularGlossiness"],"images":[{"uri":"textures\/Material #114_diffuse.png"},{"uri":"textures\/Material #114_specularGlossiness.png"},{"uri":"textures\/Material #113_diffuse.png"}],"materials":[{"doubleSided":true,"emissiveFactor":[0,0,0],"extensions":{"KHR_materials_pbrSpecularGlossiness":{"diffuseFactor":[1,1,1,1],"diffuseTexture":{"index":2,"texCoord":0},"glossinessFactor":0,"specularFactor":[0,0,0]}},"name":"Material #113","occlusionFactor":1},{"doubleSided":true,"emissiveFactor":[0,0,0],"extensions":{"KHR_materials_pbrSpecularGlossiness":{"diffuseFactor":[1,1,1,1],"diffuseTexture":{"index":0,"texCoord":0},"glossinessFactor":0,"specularFactor":[1,1,1],"specularGlossinessTexture":{"index":1,"texCoord":0}}},"name":"Material #114","occlusionFactor":1}],"meshes":[{"name":"Box091","primitives":[{"attributes":{"COLOR_0":2,"NORMAL":1,"POSITION":0,"TANGENT":4,"TEXCOORD_0":3},"indices":5,"material":1,"mode":4}]},{"name":"Box092","primitives":[{"attributes":{"COLOR_0":8,"NORMAL":7,"POSITION":6,"TANGENT":10,"TEXCOORD_0":9},"indices":11,"material":0,"mode":4}]}],"nodes":[{"children":[1],"name":"RootNode (gltf orientation matrix)","rotation":[-0.70710678118654746,-0,-0,0.70710678118654757]},{"children":[2],"name":"RootNode (model correction matrix)"},{"children":[3,6],"name":"lever.3DS"},{"children":[4],"matrix":[-1.1699562207923009e-08,0.084994368255138397,0.049071520566940308,0,-0.24195843935012817,-2.8843695432101413e-08,7.2109238580253532e-09,0,1.3134815901594266e-08,-0.08814624696969986,0.15267379581928253,0,-0.78978538513183594,-0.4222412109375,0.9906468391418457,1],"name":"Box091"},{"children":[5],"matrix":[-6.2166184965867612e-07,-4.1329409344028294,5.0990618457776823e-07,0,8.8241141651990578,-4.1518224933790637e-07,-2.8361952843246274,0,5.0946045329214877,1.8134799647803906e-07,4.9124344152029638,0,-1.3210497176314377,-3.2641367025633437,-6.0640457545044431,1],"name":"3DSMeshMatrix"},{"mesh":0,"name":"Box091"},{"children":[7],"matrix":[0,0.098143041133880615,0,0,-0.075137652456760406,0,0,0,0,0,0.14162839949131012,0,-0.79912376403808594,-0.4205322265625,0.83858919143676758,1],"name":"Box092"},{"children":[8],"matrix":[0,-13.308906617430877,0,0,10.189209427858081,0,-0,0,-0,0,7.0607307827506505,0,4.2848909276087754,-10.635463551352752,-5.9210525180595628,1],"name":"3DSMeshMatrix"},{"mesh":1,"name":"Box092"}],"samplers":[{"magFilter":9729,"minFilter":9987,"wrapS":10497,"wrapT":10497}],"scene":0,"scenes":[{"name":"OSG_Scene","nodes":[0]}],"textures":[{"sampler":0,"source":0},{"sampler":0,"source":1},{"sampler":0,"source":2}]}
