{
  "accessors": [
    {
      "bufferView": 2,
      "componentType": 5126,
      "count": 364,
      "max": [
        0.83271002769470215,
        0.0097862100228667259,
        0.84313398599624634
      ],
      "min": [
        -0.83271002769470215,
        -0.011464100331068039,
        -0.84313499927520752
      ],
      "type": "VEC3"
    },
    {
      "bufferView": 2,
      "byteOffset": 4368,
      "componentType": 5126,
      "count": 364,
      "max": [
        1,
        1,
        0.98958861827850342
      ],
      "min": [
        -1,
        -1.8379097355136764e-06,
        -0.98958861827850342
      ],
      "type": "VEC3"
    },
    {
      "bufferView": 1,
      "componentType": 5126,
      "count": 364,
      "max": [
        0.16064099967479706,
        0.97314202785491943
      ],
      "min": [
        0.03184790164232254,
        0.44873499870300293
      ],
      "type": "VEC2"
    },
    {
      "bufferView": 3,
      "componentType": 5126,
      "count": 364,
      "max": [
        0.95292502641677856,
        0.99412602186203003,
        0.15930899977684021,
        1
      ],
      "min": [
        -0.56307601928710938,
        -0.99898099899291992,
        -0.9993559718132019,
        1
      ],
      "type": "VEC4"
    },
    {
      "bufferView": 0,
      "componentType": 5125,
      "count": 1512,
      "max": [
        363
      ],
      "min": [
        0
      ],
      "type": "SCALAR"
    },
    {
      "bufferView": 2,
      "byteOffset": 8736,
      "componentType": 5126,
      "count": 32,
      "max": [
        0.94913399219512939,
        -0.01828560046851635,
        0.94906198978424072
      ],
      "min": [
        -0.94170701503753662,
        -0.018286200240254402,
        -0.94178098440170288
      ],
      "type": "VEC3"
    },
    {
      "bufferView": 2,
      "byteOffset": 9120,
      "componentType": 5126,
      "count": 32,
      "max": [
        5.3934599009153317e-07,
        1,
        1.3298000567374402e-07
      ],
      "min": [
        -4.5468499365597381e-07,
        1,
        -4.5882100607741449e-07
      ],
      "type": "VEC3"
    },
    {
      "bufferView": 1,
      "byteOffset": 2912,
      "componentType": 5126,
      "count": 32,
      "max": [
        0.98641401529312134,
        0.99006497859954834
      ],
      "min": [
        0.45980998873710632,
        0.46345999836921692
      ],
      "type": "VEC2"
    },
    {
      "bufferView": 3,
      "byteOffset": 5824,
      "componentType": 5126,
      "count": 32,
      "max": [
        1,
        4.5467498921425431e-07,
        1.4362900401465595e-05,
        1
      ],
      "min": [
        1,
        -5.3934701327307266e-07,
        -2.2453199562733062e-05,
        1
      ],
      "type": "VEC4"
    },
    {
      "bufferView": 0,
      "byteOffset": 6048,
      "componentType": 5125,
      "count": 96,
      "max": [
        31
      ],
      "min": [
        0
      ],
      "type": "SCALAR"
    },
    {
      "bufferView": 2,
      "byteOffset": 9504,
      "componentType": 5126,
      "count": 2339,
      "max": [
        1,
        0.0097862398251891136,
        1
      ],
      "min": [
        -1,
        -0.018286200240254402,
        -1
      ],
      "type": "VEC3"
    },
    {
      "bufferView": 2,
      "byteOffset": 37572,
      "componentType": 5126,
      "count": 2339,
      "max": [
        1,
        1,
        1
      ],
      "min": [
        -1,
        -7.3766000241448637e-06,
        -1
      ],
      "type": "VEC3"
    },
    {
      "bufferView": 1,
      "byteOffset": 3168,
      "componentType": 5126,
      "count": 2339,
      "max": [
        0.97434097528457642,
        0.97533601522445679
      ],
      "min": [
        0.0050180600956082344,
        0.18979300558567047
      ],
      "type": "VEC2"
    },
    {
      "bufferView": 3,
      "byteOffset": 6336,
      "componentType": 5126,
      "count": 2339,
      "max": [
        1,
        1,
        0.99632501602172852,
        1
      ],
      "min": [
        -1,
        -1,
        -1,
        -1
      ],
      "type": "VEC4"
    },
    {
      "bufferView": 0,
      "byteOffset": 6432,
      "componentType": 5125,
      "count": 6036,
      "max": [
        2338
      ],
      "min": [
        0
      ],
      "type": "SCALAR"
    },
    {
      "bufferView": 2,
      "byteOffset": 65640,
      "componentType": 5126,
      "count": 304,
      "max": [
        0.54763698577880859,
        0.0050712698139250278,
        0.79476702213287354
      ],
      "min": [
        -0.54763698577880859,
        -0.008464139886200428,
        -0.79476797580718994
      ],
      "type": "VEC3"
    },
    {
      "bufferView": 2,
      "byteOffset": 69288,
      "componentType": 5126,
      "count": 304,
      "max": [
        1,
        0.99996989965438843,
        1
      ],
      "min": [
        -1,
        -1.6292099758175027e-07,
        -1
      ],
      "type": "VEC3"
    },
    {
      "bufferView": 1,
      "byteOffset": 21880,
      "componentType": 5126,
      "count": 304,
      "max": [
        0.98136597871780396,
        0.17416900396347046
      ],
      "min": [
        0.38280600309371948,
        0.019729100167751312
      ],
      "type": "VEC2"
    },
    {
      "bufferView": 3,
      "byteOffset": 43760,
      "componentType": 5126,
      "count": 304,
      "max": [
        1,
        0.051708899438381195,
        1,
        1
      ],
      "min": [
        -1,
        -0.051708899438381195,
        -1,
        1
      ],
      "type": "VEC4"
    },
    {
      "bufferView": 0,
      "byteOffset": 30576,
      "componentType": 5125,
      "count": 672,
      "max": [
        303
      ],
      "min": [
        0
      ],
      "type": "SCALAR"
    },
    {
      "bufferView": 2,
      "byteOffset": 72936,
      "componentType": 5126,
      "count": 432,
      "max": [
        0.77459001541137695,
        0.018286200240254402,
        0.7825009822845459
      ],
      "min": [
        -0.77459001541137695,
        -0.017892900854349136,
        -0.78250199556350708
      ],
      "type": "VEC3"
    },
    {
      "bufferView": 2,
      "byteOffset": 78120,
      "componentType": 5126,
      "count": 432,
      "max": [
        1,
        1,
        0.99971878528594971
      ],
      "min": [
        -1,
        -1.0418997362648952e-06,
        -0.99971878528594971
      ],
      "type": "VEC3"
    },
    {
      "bufferView": 1,
      "byteOffset": 24312,
      "componentType": 5126,
      "count": 432,
      "max": [
        0.34643098711967468,
        0.2169640064239502
      ],
      "min": [
        0.13416400551795959,
        0.010106800124049187
      ],
      "type": "VEC2"
    },
    {
      "bufferView": 3,
      "byteOffset": 48624,
      "componentType": 5126,
      "count": 432,
      "max": [
        0.99971902370452881,
        1,
        1,
        1
      ],
      "min": [
        -0.99971902370452881,
        -0.89691102504730225,
        -0.99993002414703369,
        -1
      ],
      "type": "VEC4"
    },
    {
      "bufferView": 0,
      "byteOffset": 33264,
      "componentType": 5125,
      "count": 696,
      "max": [
        431
      ],
      "min": [
        0
      ],
      "type": "SCALAR"
    },
    {
      "bufferView": 2,
      "byteOffset": 83304,
      "componentType": 5126,
      "count": 16,
      "max": [
        0.52299398183822632,
        -0.0044925101101398468,
        0.77779597043991089
      ],
      "min": [
        -0.52299398183822632,
        -0.004492809996008873,
        -0.77779698371887207
      ],
      "type": "VEC3"
    },
    {
      "bufferView": 2,
      "byteOffset": 83496,
      "componentType": 5126,
      "count": 16,
      "max": [
        9.9927298435886769e-08,
        1,
        1.6663099700053863e-07
      ],
      "min": [
        -9.9927298435886769e-08,
        1,
        -4.9247199740420911e-07
      ],
      "type": "VEC3"
    },
    {
      "bufferView": 1,
      "byteOffset": 27768,
      "componentType": 5126,
      "count": 16,
      "max": [
        0.96627098321914673,
        0.96653801202774048
      ],
      "min": [
        0.24922999739646912,
        0.21749100089073181
      ],
      "type": "VEC2"
    },
    {
      "bufferView": 3,
      "byteOffset": 55536,
      "componentType": 5126,
      "count": 16,
      "max": [
        1.4790899740546593e-06,
        1.6663099700053863e-07,
        1.0118000091097201e-06,
        1
      ],
      "min": [
        -1,
        -4.9247199740420911e-07,
        -1,
        1
      ],
      "type": "VEC4"
    },
    {
      "bufferView": 0,
      "byteOffset": 36048,
      "componentType": 5125,
      "count": 24,
      "max": [
        15
      ],
      "min": [
        0
      ],
      "type": "SCALAR"
    },
    {
      "bufferView": 2,
      "byteOffset": 83688,
      "componentType": 5126,
      "count": 168,
      "max": [
        0.77252799272537231,
        -0.0029638500418514013,
        0.83197402954101562
      ],
      "min": [
        -0.7725290060043335,
        -0.0029641399160027504,
        -0.8502119779586792
      ],
      "type": "VEC3"
    },
    {
      "bufferView": 2,
      "byteOffset": 85704,
      "componentType": 5126,
      "count": 168,
      "max": [
        1.4598999769077636e-06,
        1,
        -1.2728999365663185e-07
      ],
      "min": [
        -1.2467199894672376e-06,
        1,
        -1.6292099758175027e-07
      ],
      "type": "VEC3"
    },
    {
      "bufferView": 1,
      "byteOffset": 27896,
      "componentType": 5126,
      "count": 168,
      "max": [
        0.98744499683380127,
        0.9912790060043335
      ],
      "min": [
        0.19254299998283386,
        0.19871799647808075
      ],
      "type": "VEC2"
    },
    {
      "bufferView": 3,
      "byteOffset": 55792,
      "componentType": 5126,
      "count": 168,
      "max": [
        2.9164999432396144e-05,
        1.4598999769077636e-06,
        3.5426299291430041e-05,
        1
      ],
      "min": [
        -1,
        -1.6292300131226511e-07,
        -1,
        1
      ],
      "type": "VEC4"
    },
    {
      "bufferView": 0,
      "byteOffset": 36144,
      "componentType": 5125,
      "count": 420,
      "max": [
        167
      ],
      "min": [
        0
      ],
      "type": "SCALAR"
    }
  ],
  "asset": {
    "generator": "Sketchfab (OSG glTF plugin)",
    "version": "2.0"
  },
  "bufferViews": [
    {
      "buffer": 0,
      "byteLength": 37824,
      "byteOffset": 0,
      "name": "ScalarBufferView",
      "target": 34963
    },
    {
      "buffer": 0,
      "byteLength": 29240,
      "byteOffset": 37824,
      "byteStride": 8,
      "name": "Vec3BufferView",
      "target": 34962
    },
    {
      "buffer": 0,
      "byteLength": 87720,
      "byteOffset": 67064,
      "byteStride": 12,
      "name": "Vec4BufferView",
      "target": 34962
    },
    {
      "buffer": 0,
      "byteLength": 58480,
      "byteOffset": 154784,
      "byteStride": 16,
      "name": "MatrixBufferView",
      "target": 34962
    }
  ],
  "buffers": [
    {
      "byteLength": 213264,
      "uri": "scene.bin"
    }
  ],
  "images": [
    {
      "uri": "textures/glow_orange_metal__metallicRoughness.png"
    },
    {
      "uri": "textures/glow_orange_metal__normal.png"
    },
    {
      "uri": "textures/glow_orange_metal__baseColor.jpeg"
    },
    {
      "uri": "textures/metal_bolt_hole_metallicRoughness.png"
    },
    {
      "uri": "textures/metal_bolt_hole_normal.png"
    },
    {
      "uri": "textures/metal_bolt_hole_baseColor.jpeg"
    },
    {
      "uri": "textures/glow_blue_emissive.jpeg"
    },
    {
      "uri": "textures/glow_blue_metallicRoughness.png"
    },
    {
      "uri": "textures/glow_blue_normal.png"
    },
    {
      "uri": "textures/glow_blue_baseColor.jpeg"
    },
    {
      "uri": "textures/panel_metal_front_metallicRoughness.png"
    },
    {
      "uri": "textures/panel_metal_front_normal.png"
    },
    {
      "uri": "textures/panel_metal_front_baseColor.jpeg"
    },
    {
      "uri": "textures/back_black_metallicRoughness.png"
    },
    {
      "uri": "textures/back_black_normal.png"
    },
    {
      "uri": "textures/back_black_baseColor.jpeg"
    },
    {
      "uri": "textures/glow_orange_emissive.jpeg"
    },
    {
      "uri": "textures/glow_orange_metallicRoughness.png"
    },
    {
      "uri": "textures/glow_orange_normal.png"
    },
    {
      "uri": "textures/glow_orange_baseColor.jpeg"
    },
    {
      "uri": "textures/metal_bolt_metallicRoughness.png"
    },
    {
      "uri": "textures/metal_bolt_normal.png"
    },
    {
      "uri": "textures/metal_bolt_baseColor.jpeg"
    }
  ],
  "materials": [
    {
      "doubleSided": true,
      "emissiveFactor": [
        1,
        1,
        1
      ],
      "emissiveTexture": {
        "index": 6,
        "texCoord": 0
      },
      "name": "glow_blue",
      "normalTexture": {
        "index": 8,
        "scale": 1,
        "texCoord": 0
      },
      "occlusionTexture": {
        "index": 7,
        "strength": 1,
        "texCoord": 0
      },
      "pbrMetallicRoughness": {
        "baseColorFactor": [
          1,
          1,
          1,
          1
        ],
        "baseColorTexture": {
          "index": 9,
          "texCoord": 0
        },
        "metallicFactor": 1,
        "metallicRoughnessTexture": {
          "index": 7,
          "texCoord": 0
        },
        "roughnessFactor": 1
      }
    },
    {
      "doubleSided": true,
      "emissiveFactor": [
        1,
        1,
        1
      ],
      "emissiveTexture": {
        "index": 16,
        "texCoord": 0
      },
      "name": "glow_orange",
      "normalTexture": {
        "index": 18,
        "scale": 1,
        "texCoord": 0
      },
      "occlusionTexture": {
        "index": 17,
        "strength": 1,
        "texCoord": 0
      },
      "pbrMetallicRoughness": {
        "baseColorFactor": [
          1,
          1,
          1,
          1
        ],
        "baseColorTexture": {
          "index": 19,
          "texCoord": 0
        },
        "metallicFactor": 1,
        "metallicRoughnessTexture": {
          "index": 17,
          "texCoord": 0
        },
        "roughnessFactor": 1
      }
    },
    {
      "doubleSided": true,
      "emissiveFactor": [
        0,
        0,
        0
      ],
      "name": "metal_bolt",
      "normalTexture": {
        "index": 21,
        "scale": 1,
        "texCoord": 0
      },
      "occlusionTexture": {
        "index": 20,
        "strength": 1,
        "texCoord": 0
      },
      "pbrMetallicRoughness": {
        "baseColorFactor": [
          1,
          1,
          1,
          1
        ],
        "baseColorTexture": {
          "index": 22,
          "texCoord": 0
        },
        "metallicFactor": 1,
        "metallicRoughnessTexture": {
          "index": 20,
          "texCoord": 0
        },
        "roughnessFactor": 1
      }
    },
    {
      "doubleSided": true,
      "emissiveFactor": [
        0,
        0,
        0
      ],
      "name": "glow_orange_metal_",
      "normalTexture": {
        "index": 1,
        "scale": 1,
        "texCoord": 0
      },
      "occlusionTexture": {
        "index": 0,
        "strength": 1,
        "texCoord": 0
      },
      "pbrMetallicRoughness": {
        "baseColorFactor": [
          1,
          1,
          1,
          1
        ],
        "baseColorTexture": {
          "index": 2,
          "texCoord": 0
        },
        "metallicFactor": 1,
        "metallicRoughnessTexture": {
          "index": 0,
          "texCoord": 0
        },
        "roughnessFactor": 1
      }
    },
    {
      "doubleSided": true,
      "emissiveFactor": [
        0,
        0,
        0
      ],
      "name": "panel_metal_front",
      "normalTexture": {
        "index": 11,
        "scale": 1,
        "texCoord": 0
      },
      "occlusionTexture": {
        "index": 10,
        "strength": 1,
        "texCoord": 0
      },
      "pbrMetallicRoughness": {
        "baseColorFactor": [
          1,
          1,
          1,
          1
        ],
        "baseColorTexture": {
          "index": 12,
          "texCoord": 0
        },
        "metallicFactor": 1,
        "metallicRoughnessTexture": {
          "index": 10,
          "texCoord": 0
        },
        "roughnessFactor": 1
      }
    },
    {
      "doubleSided": true,
      "emissiveFactor": [
        0,
        0,
        0
      ],
      "name": "back_black",
      "normalTexture": {
        "index": 14,
        "scale": 1,
        "texCoord": 0
      },
      "occlusionTexture": {
        "index": 13,
        "strength": 1,
        "texCoord": 0
      },
      "pbrMetallicRoughness": {
        "baseColorFactor": [
          1,
          1,
          1,
          1
        ],
        "baseColorTexture": {
          "index": 15,
          "texCoord": 0
        },
        "metallicFactor": 1,
        "metallicRoughnessTexture": {
          "index": 13,
          "texCoord": 0
        },
        "roughnessFactor": 1
      }
    },
    {
      "doubleSided": true,
      "emissiveFactor": [
        0,
        0,
        0
      ],
      "name": "metal_bolt_hole",
      "normalTexture": {
        "index": 4,
        "scale": 1,
        "texCoord": 0
      },
      "occlusionTexture": {
        "index": 3,
        "strength": 1,
        "texCoord": 0
      },
      "pbrMetallicRoughness": {
        "baseColorFactor": [
          1,
          1,
          1,
          1
        ],
        "baseColorTexture": {
          "index": 5,
          "texCoord": 0
        },
        "metallicFactor": 1,
        "metallicRoughnessTexture": {
          "index": 3,
          "texCoord": 0
        },
        "roughnessFactor": 1
      }
    }
  ],
  "meshes": [
    {
      "primitives": [
        {
          "attributes": {
            "NORMAL": 1,
            "POSITION": 0,
            "TANGENT": 3,
            "TEXCOORD_0": 2
          },
          "indices": 4,
          "material": 6,
          "mode": 4
        }
      ]
    },
    {
      "primitives": [
        {
          "attributes": {
            "NORMAL": 6,
            "POSITION": 5,
            "TANGENT": 8,
            "TEXCOORD_0": 7
          },
          "indices": 9,
          "material": 5,
          "mode": 4
        }
      ]
    },
    {
      "primitives": [
        {
          "attributes": {
            "NORMAL": 11,
            "POSITION": 10,
            "TANGENT": 13,
            "TEXCOORD_0": 12
          },
          "indices": 14,
          "material": 4,
          "mode": 4
        }
      ]
    },
    {
      "primitives": [
        {
          "attributes": {
            "NORMAL": 16,
            "POSITION": 15,
            "TANGENT": 18,
            "TEXCOORD_0": 17
          },
          "indices": 19,
          "material": 3,
          "mode": 4
        }
      ]
    },
    {
      "primitives": [
        {
          "attributes": {
            "NORMAL": 21,
            "POSITION": 20,
            "TANGENT": 23,
            "TEXCOORD_0": 22
          },
          "indices": 24,
          "material": 2,
          "mode": 4
        }
      ]
    },
    {
      "primitives": [
        {
          "attributes": {
            "NORMAL": 26,
            "POSITION": 25,
            "TANGENT": 28,
            "TEXCOORD_0": 27
          },
          "indices": 29,
          "material": 1,
          "mode": 4
        }
      ]
    },
    {
      "primitives": [
        {
          "attributes": {
            "NORMAL": 31,
            "POSITION": 30,
            "TANGENT": 33,
            "TEXCOORD_0": 32
          },
          "indices": 34,
          "material": 0,
          "mode": 4
        }
      ]
    }
  ],
  "nodes": [
    {
      "children": [
        1
      ],
      "name": "RootNode (gltf orientation matrix)",
      "rotation": [
        -0.70710678118654746,
        -0,
        -0,
        0.70710678118654757
      ]
    },
    {
      "children": [
        2
      ],
      "name": "RootNode (model correction matrix)"
    },
    {
      "children": [
        3,
        5,
        7,
        9,
        11,
        13,
        15
      ],
      "matrix": [
        1,
        0,
        0,
        0,
        0,
        -4.3711390063094768e-08,
        0.999999999999999,
        0,
        0,
        -0.999999999999999,
        -4.3711390063094768e-08,
        0,
        0,
        0,
        0,
        1
      ],
      "name": "Collada visual scene group"
    },
    {
      "children": [
        4
      ],
      "name": "Cube.010"
    },
    {
      "mesh": 0,
      "name": ""
    },
    {
      "children": [
        6
      ],
      "name": "Cube.010"
    },
    {
      "mesh": 1,
      "name": ""
    },
    {
      "children": [
        8
      ],
      "name": "Cube.010"
    },
    {
      "mesh": 2,
      "name": ""
    },
    {
      "children": [
        10
      ],
      "name": "Cube.010"
    },
    {
      "mesh": 3,
      "name": ""
    },
    {
      "children": [
        12
      ],
      "name": "Cube.010"
    },
    {
      "mesh": 4,
      "name": ""
    },
    {
      "children": [
        14
      ],
      "name": "Cube.010"
    },
    {
      "mesh": 5,
      "name": ""
    },
    {
      "children": [
        16
      ],
      "name": "Cube.010"
    },
    {
      "mesh": 6,
      "name": ""
    }
  ],
  "samplers": [
    {
      "magFilter": 9729,
      "minFilter": 9987,
      "wrapS": 10497,
      "wrapT": 10497
    }
  ],
  "scene": 0,
  "scenes": [
    {
      "name": "OSG_Scene",
      "nodes": [
        0
      ]
    }
  ],
  "textures": [
    {
      "sampler": 0,
      "source": 0
    },
    {
      "sampler": 0,
      "source": 1
    },
    {
      "sampler": 0,
      "source": 2
    },
    {
      "sampler": 0,
      "source": 3
    },
    {
      "sampler": 0,
      "source": 4
    },
    {
      "sampler": 0,
      "source": 5
    },
    {
      "sampler": 0,
      "source": 6
    },
    {
      "sampler": 0,
      "source": 7
    },
    {
      "sampler": 0,
      "source": 8
    },
    {
      "sampler": 0,
      "source": 9
    },
    {
      "sampler": 0,
      "source": 10
    },
    {
      "sampler": 0,
      "source": 11
    },
    {
      "sampler": 0,
      "source": 12
    },
    {
      "sampler": 0,
      "source": 13
    },
    {
      "sampler": 0,
      "source": 14
    },
    {
      "sampler": 0,
      "source": 15
    },
    {
      "sampler": 0,
      "source": 16
    },
    {
      "sampler": 0,
      "source": 17
    },
    {
      "sampler": 0,
      "source": 18
    },
    {
      "sampler": 0,
      "source": 19
    },
    {
      "sampler": 0,
      "source": 20
    },
    {
      "sampler": 0,
      "source": 21
    },
    {
      "sampler": 0,
      "source": 22
    }
  ]
}

