{"accessors":[{"bufferView":2,"componentType":5126,"count":65532,"max":[1000,1000,272.95193481445312],"min":[-272.95193481445312,-1000,-272.95193481445312],"type":"VEC3"},{"bufferView":2,"byteOffset":786384,"componentType":5126,"count":65532,"max":[1,1,0.27295204997062683],"min":[-0.27295178174972534,-1,-0.27295178174972534],"type":"VEC3"},{"bufferView":1,"componentType":5126,"count":65532,"max":[1,1],"min":[0,0],"type":"VEC2"},{"bufferView":3,"componentType":5126,"count":65532,"max":[1,0.001574263907968998,1,1],"min":[-1,-0.0015754341147840023,-1,1],"type":"VEC4"},{"bufferView":0,"componentType":5125,"count":381126,"max":[65531],"min":[0],"type":"SCALAR"},{"bufferView":2,"byteOffset":1572768,"componentType":5126,"count":65532,"max":[1000,1000,541.12127685546875],"min":[-541.12127685546875,-962.02764892578125,-541.12127685546875],"type":"VEC3"},{"bufferView":2,"byteOffset":2359152,"componentType":5126,"count":65532,"max":[1,1,0.54112374782562256],"min":[-0.54112374782562256,-0.96202778816223145,-0.54112374782562256],"type":"VEC3"},{"bufferView":1,"byteOffset":524256,"componentType":5126,"count":65532,"max":[0.9570000171661377,1],"min":[0,0.088000059127807617],"type":"VEC2"},{"bufferView":3,"byteOffset":1048512,"componentType":5126,"count":65532,"max":[1,0.0015742683317512274,1,1],"min":[-1,-0.0015754339983686805,-1,1],"type":"VEC4"},{"bufferView":0,"byteOffset":1524504,"componentType":5125,"count":382194,"max":[65531],"min":[0],"type":"SCALAR"},{"bufferView":2,"byteOffset":3145536,"componentType":5126,"count":65532,"max":[999.98028564453125,1000,774.5030517578125],"min":[-774.5030517578125,-840.944580078125,-774.5030517578125],"type":"VEC3"},{"bufferView":2,"byteOffset":3931920,"componentType":5126,"count":65532,"max":[0.99998033046722412,1,0.77450454235076904],"min":[-0.77450454235076904,-0.84094381332397461,-0.77450454235076904],"type":"VEC3"},{"bufferView":1,"byteOffset":1048512,"componentType":5126,"count":65532,"max":[0.91200000047683716,1],"min":[0.0010000000474974513,0.18200004100799561],"type":"VEC2"},{"bufferView":3,"byteOffset":2097024,"componentType":5126,"count":65532,"max":[1,6.9157845246081706e-06,1,1],"min":[-1,-2.92449072958334e-07,-0.9999803900718689,1],"type":"VEC4"},{"bufferView":0,"byteOffset":3053280,"componentType":5125,"count":383043,"max":[65531],"min":[0],"type":"SCALAR"},{"bufferView":2,"byteOffset":4718304,"componentType":5126,"count":65532,"max":[999.9210205078125,1000,942.99053955078125],"min":[-942.99053955078125,-632.5701904296875,-942.99053955078125],"type":"VEC3"},{"bufferView":2,"byteOffset":5504688,"componentType":5126,"count":65532,"max":[0.99992108345031738,1,0.94299083948135376],"min":[-0.94299083948135376,-0.63257074356079102,-0.94299083948135376],"type":"VEC3"},{"bufferView":1,"byteOffset":1572768,"componentType":5126,"count":65532,"max":[0.86100000143051147,1],"min":[0.0020000000949949026,0.28200006484985352],"type":"VEC2"},{"bufferView":3,"byteOffset":3145536,"componentType":5126,"count":65532,"max":[1,7.0494329520442989e-06,1,1],"min":[-1,-2.5742195930433809e-07,-0.99992114305496216,1],"type":"VEC4"},{"bufferView":0,"byteOffset":4585452,"componentType":5125,"count":383979,"max":[65531],"min":[0],"type":"SCALAR"},{"bufferView":2,"byteOffset":6291072,"componentType":5126,"count":65532,"max":[999.82232666015625,1000,1000],"min":[-1000,-332.81954956054688,-1000],"type":"VEC3"},{"bufferView":2,"byteOffset":7077456,"componentType":5126,"count":65532,"max":[0.99982231855392456,1,1],"min":[-1,-0.33282220363616943,-1],"type":"VEC3"},{"bufferView":1,"byteOffset":2097024,"componentType":5126,"count":65532,"max":[0.80699998140335083,1],"min":[0.0030000000260770321,0.39200007915496826],"type":"VEC2"},{"bufferView":3,"byteOffset":4194048,"componentType":5126,"count":65532,"max":[1,7.2973425631062128e-06,1,1],"min":[-1,-3.1443462944480416e-07,-0.99982249736785889,1],"type":"VEC4"},{"bufferView":0,"byteOffset":6121368,"componentType":5125,"count":384987,"max":[65531],"min":[0],"type":"SCALAR"},{"bufferView":2,"byteOffset":7863840,"componentType":5126,"count":65532,"max":[998.7174072265625,1000,998.3231201171875],"min":[-999.032958984375,43.968116760253906,-999.032958984375],"type":"VEC3"},{"bufferView":2,"byteOffset":8650224,"componentType":5126,"count":65532,"max":[0.9987175464630127,1,0.99832320213317871],"min":[-0.99903285503387451,0.043965797871351242,-0.99903285503387451],"type":"VEC3"},{"bufferView":1,"byteOffset":2621280,"componentType":5126,"count":65532,"max":[0.74599999189376831,1],"min":[0.0040000001899898052,0.51399999856948853],"type":"VEC2"},{"bufferView":3,"byteOffset":5242560,"componentType":5126,"count":65532,"max":[0.99968451261520386,7.1859940362628549e-06,1,1],"min":[-1,-3.0943434126129432e-07,-0.99968433380126953,1],"type":"VEC4"},{"bufferView":0,"byteOffset":7661316,"componentType":5125,"count":386145,"max":[65531],"min":[0],"type":"SCALAR"},{"bufferView":2,"byteOffset":9436608,"componentType":5126,"count":65532,"max":[881.85589599609375,1000,786.2061767578125],"min":[-885.2313232421875,465.15109252929688,-882.29119873046875],"type":"VEC3"},{"bufferView":2,"byteOffset":10222992,"componentType":5126,"count":65532,"max":[0.88185614347457886,1,0.78620427846908569],"min":[-0.88523036241531372,0.46514970064163208,-0.8822895884513855],"type":"VEC3"},{"bufferView":1,"byteOffset":3145536,"componentType":5126,"count":65532,"max":[0.67699998617172241,1],"min":[0.004999999888241291,0.65400004386901855],"type":"VEC2"},{"bufferView":3,"byteOffset":6291072,"componentType":5126,"count":65532,"max":[0.89710420370101929,7.026009370747488e-06,1,1],"min":[-1,-1.4922832067276737e-11,-0.99950665235519409,1],"type":"VEC4"},{"bufferView":0,"byteOffset":9205896,"componentType":5125,"count":387459,"max":[65531],"min":[0],"type":"SCALAR"},{"bufferView":2,"byteOffset":11009376,"componentType":5126,"count":52322,"max":[530.13421630859375,1000,272.994873046875],"min":[-519.81732177734375,847.67791748046875,-524.51129150390625],"type":"VEC3"},{"bufferView":2,"byteOffset":11637240,"componentType":5126,"count":52322,"max":[0.53013503551483154,1,0.27299493551254272],"min":[-0.51981699466705322,0.84767699241638184,-0.52451002597808838],"type":"VEC3"},{"bufferView":1,"byteOffset":3669792,"componentType":5126,"count":52322,"max":[0.99900001287460327,1],"min":[0.0060000000521540642,0.82200002670288086],"type":"VEC2"},{"bufferView":3,"byteOffset":7339584,"componentType":5126,"count":52322,"max":[0.9999995231628418,7.2973425631062128e-06,1,1],"min":[-1,-2.6075724912644205e-11,-0.99998629093170166,1],"type":"VEC4"},{"bufferView":0,"byteOffset":10755732,"componentType":5125,"count":305067,"max":[52321],"min":[0],"type":"SCALAR"}],"asset":{"generator":"Sketchfab (OSG glTF plugin)","version":"2.0"},"bufferViews":[{"buffer":0,"byteLength":11976000,"byteOffset":0,"name":"ScalarBufferView","target":34962},{"buffer":0,"byteLength":4088368,"byteOffset":11976000,"byteStride":8,"name":"Vec2BufferView","target":34962},{"buffer":0,"byteLength":12265104,"byteOffset":16064368,"byteStride":12,"name":"Vec3BufferView","target":34962},{"buffer":0,"byteLength":8176736,"byteOffset":28329472,"byteStride":16,"name":"Vec4BufferView","target":34962}],"buffers":[{"byteLength":36506208,"uri":"scene.bin"}],"extensionsRequired":["KHR_materials_pbrSpecularGlossiness"],"extensionsUsed":["KHR_materials_pbrSpecularGlossiness"],"images":[{"uri":"textures\/Mat_diffuse.jpeg"}],"materials":[{"doubleSided":true,"emissiveFactor":[0,0,0],"extensions":{"KHR_materials_pbrSpecularGlossiness":{"diffuseFactor":[1,1,1,1],"diffuseTexture":{"index":0,"texCoord":0},"glossinessFactor":0,"specularFactor":[0,0,0]}},"name":"Mat","occlusionFactor":1}],"meshes":[{"name":"Esfera","primitives":[{"attributes":{"NORMAL":1,"POSITION":0,"TANGENT":3,"TEXCOORD_0":2},"indices":4,"material":0,"mode":4},{"attributes":{"NORMAL":6,"POSITION":5,"TANGENT":8,"TEXCOORD_0":7},"indices":9,"material":0,"mode":4},{"attributes":{"NORMAL":11,"POSITION":10,"TANGENT":13,"TEXCOORD_0":12},"indices":14,"material":0,"mode":4},{"attributes":{"NORMAL":16,"POSITION":15,"TANGENT":18,"TEXCOORD_0":17},"indices":19,"material":0,"mode":4},{"attributes":{"NORMAL":21,"POSITION":20,"TANGENT":23,"TEXCOORD_0":22},"indices":24,"material":0,"mode":4},{"attributes":{"NORMAL":26,"POSITION":25,"TANGENT":28,"TEXCOORD_0":27},"indices":29,"material":0,"mode":4},{"attributes":{"NORMAL":31,"POSITION":30,"TANGENT":33,"TEXCOORD_0":32},"indices":34,"material":0,"mode":4},{"attributes":{"NORMAL":36,"POSITION":35,"TANGENT":38,"TEXCOORD_0":37},"indices":39,"material":0,"mode":4}]}],"nodes":[{"children":[1],"name":"RootNode (gltf orientation matrix)","rotation":[-0.70710678118654746,-0,-0,0.70710678118654757]},{"children":[2],"name":"RootNode (model correction matrix)"},{"children":[3],"matrix":[1,0,0,0,0,0,1,0,0,-1,0,0,0,0,0,1],"name":"Corot-7b.fbx"},{"children":[4,6,9],"name":"RootNode"},{"children":[5],"matrix":[-0.88771520592724662,-0.4117680875524935,0.2059338613218053,0,-0.40111635777838384,0.91128867109898937,0.09305173533707739,0,-0.22598092992142066,-4.163336342344337e-17,-0.97413172585223329,0,3434.887451171875,1549.989501953125,-1203.240234375,1],"name":"Cinema_4D_Editor"},{"name":""},{"children":[7],"matrix":[-0.98198984013763346,1.2490009027033011e-16,-0.18893372876875369,0,0.18893372876875369,0,-0.98198984013763346,0,-1.2490009027033011e-16,-1,0,0,0,0,1603.644775390625,1],"name":"Luz"},{"children":[8],"matrix":[1,0,0,0,0,2.2204460492503131e-16,1,0,0,-1,2.2204460492503131e-16,0,0,0,0,1],"name":""},{"name":""},{"children":[10],"name":"Esfera"},{"mesh":0,"name":"Esfera"}],"samplers":[{"magFilter":9729,"minFilter":9987,"wrapS":10497,"wrapT":10497}],"scene":0,"scenes":[{"name":"OSG_Scene","nodes":[0]}],"textures":[{"sampler":0,"source":0}]}
