{"accessors":[{"bufferView":1,"componentType":5126,"count":4,"max":[0.80904000997543335,0.477510005235672,0.38839998841285706],"min":[-0.7773900032043457,-1.5224900245666504,0.38839998841285706],"type":"VEC3"},{"bufferView":1,"byteOffset":48,"componentType":5126,"count":4,"max":[-0,0,1],"min":[-0,0,1],"type":"VEC3"},{"bufferView":0,"componentType":5125,"count":6,"max":[3],"min":[0],"type":"SCALAR"},{"bufferView":1,"byteOffset":96,"componentType":5126,"count":4,"max":[0.82752001285552979,0.67878001928329468,-0.34351998567581177],"min":[-0.75248998403549194,-1.3212200403213501,-0.34351998567581177],"type":"VEC3"},{"bufferView":1,"byteOffset":144,"componentType":5126,"count":4,"max":[-0,0,1],"min":[-0,0,1],"type":"VEC3"},{"bufferView":0,"byteOffset":24,"componentType":5125,"count":6,"max":[3],"min":[0],"type":"SCALAR"},{"bufferView":1,"byteOffset":192,"componentType":5126,"count":4,"max":[0.7488899827003479,0.92295002937316895,-0.34172001481056213],"min":[-0.59526002407073975,-1.0770499706268311,-0.34172001481056213],"type":"VEC3"},{"bufferView":1,"byteOffset":240,"componentType":5126,"count":4,"max":[-0,0,1],"min":[-0,0,1],"type":"VEC3"},{"bufferView":0,"byteOffset":48,"componentType":5125,"count":6,"max":[3],"min":[0],"type":"SCALAR"},{"bufferView":1,"byteOffset":288,"componentType":5126,"count":594,"max":[1.9919300079345703,1.5896199941635132,5.7483000755310059],"min":[-2.0080699920654297,-2.2581400871276855,-0.36700001358985901],"type":"VEC3"},{"bufferView":1,"byteOffset":7416,"componentType":5126,"count":594,"max":[1,1,0.99999994039535522],"min":[-0.99999964237213135,-1,-1],"type":"VEC3"},{"bufferView":0,"byteOffset":72,"componentType":5125,"count":1428,"max":[593],"min":[0],"type":"SCALAR"},{"bufferView":1,"byteOffset":14544,"componentType":5126,"count":600,"max":[1,1,1],"min":[-1,-1,-1],"type":"VEC3"},{"bufferView":1,"byteOffset":21744,"componentType":5126,"count":600,"max":[1,1,1],"min":[-1,-1,-1],"type":"VEC3"},{"bufferView":0,"byteOffset":5784,"componentType":5125,"count":900,"max":[599],"min":[0],"type":"SCALAR"},{"bufferView":1,"byteOffset":28944,"componentType":5126,"count":4,"max":[0.75275999307632446,-0.079980000853538513,0.23872999846935272],"min":[-0.65464001893997192,-2.0799798965454102,0.23872999846935272],"type":"VEC3"},{"bufferView":1,"byteOffset":28992,"componentType":5126,"count":4,"max":[-0,0,1],"min":[-0,0,1],"type":"VEC3"},{"bufferView":0,"byteOffset":9384,"componentType":5125,"count":6,"max":[3],"min":[0],"type":"SCALAR"},{"bufferView":1,"byteOffset":29040,"componentType":5126,"count":64,"max":[1.9575999975204468,1.9609500169754028,0.17529000341892242],"min":[-2.0423998832702637,-2.0390501022338867,-0.20531000196933746],"type":"VEC3"},{"bufferView":1,"byteOffset":29808,"componentType":5126,"count":64,"max":[0.99946153163909912,0.99946153163909912,0],"min":[-0.99946153163909912,-0.99946153163909912,0],"type":"VEC3"},{"bufferView":0,"byteOffset":9408,"componentType":5125,"count":192,"max":[63],"min":[0],"type":"SCALAR"}],"asset":{"generator":"Sketchfab (OSG glTF plugin)","version":"2.0"},"bufferViews":[{"buffer":0,"byteLength":10176,"byteOffset":0,"name":"ScalarBufferView","target":34962},{"buffer":0,"byteLength":30576,"byteOffset":10176,"byteStride":12,"name":"Vec3BufferView","target":34962}],"buffers":[{"byteLength":40752,"uri":"scene.bin"}],"extensionsRequired":["KHR_materials_pbrSpecularGlossiness"],"extensionsUsed":["KHR_materials_pbrSpecularGlossiness"],"materials":[{"doubleSided":true,"emissiveFactor":[0,0,0],"extensions":{"KHR_materials_pbrSpecularGlossiness":{"diffuseFactor":[0.5,0.5,0.5,1],"glossinessFactor":0,"specularFactor":[0,0,0]}},"name":"Root","occlusionFactor":1},{"doubleSided":true,"emissiveFactor":[0,0,0],"extensions":{"KHR_materials_pbrSpecularGlossiness":{"diffuseFactor":[0.64000001904000015,0.64000001904000015,0.64000001904000015,1],"glossinessFactor":0,"specularFactor":[0.5,0.5,0.5]}},"name":"Material.003","occlusionFactor":1},{"doubleSided":true,"emissiveFactor":[0,0,0],"extensions":{"KHR_materials_pbrSpecularGlossiness":{"diffuseFactor":[0.021198929301607494,0.021198929301607494,0.021198929301607494,1],"glossinessFactor":0,"specularFactor":[0.14307511988702987,0.14307511988702987,0.14307511988702987]}},"name":"Material.001","occlusionFactor":1},{"doubleSided":true,"emissiveFactor":[0,0,0],"extensions":{"KHR_materials_pbrSpecularGlossiness":{"diffuseFactor":[0.25169299419350244,0.25169299419350244,0.25169299419350244,1],"glossinessFactor":0,"specularFactor":[0.5,0.5,0.5]}},"name":"Material.002","occlusionFactor":1},{"doubleSided":true,"emissiveFactor":[0,0,0],"extensions":{"KHR_materials_pbrSpecularGlossiness":{"diffuseFactor":[0.64000001904000015,0.64000001904000015,0.64000001904000015,1],"glossinessFactor":0,"specularFactor":[0.5,0.5,0.5]}},"name":"Material.004","occlusionFactor":1},{"doubleSided":true,"emissiveFactor":[0,0,0],"extensions":{"KHR_materials_pbrSpecularGlossiness":{"diffuseFactor":[0.64000001904000015,0.64000001904000015,0.64000001904000015,1],"glossinessFactor":0,"specularFactor":[0.5,0.5,0.5]}},"name":"Material.005","occlusionFactor":1},{"doubleSided":true,"emissiveFactor":[0,0,0],"extensions":{"KHR_materials_pbrSpecularGlossiness":{"diffuseFactor":[0.64000001904000015,0.64000001904000015,0.64000001904000015,1],"glossinessFactor":0,"specularFactor":[0.5,0.5,0.5]}},"name":"Material.006","occlusionFactor":1}],"meshes":[{"name":"GeodePlane.004","primitives":[{"attributes":{"NORMAL":1,"POSITION":0},"indices":2,"material":6,"mode":4}]},{"name":"GeodePlane.003","primitives":[{"attributes":{"NORMAL":4,"POSITION":3},"indices":5,"material":5,"mode":4}]},{"name":"GeodePlane.002","primitives":[{"attributes":{"NORMAL":7,"POSITION":6},"indices":8,"material":4,"mode":4}]},{"name":"GeodeCircle.001","primitives":[{"attributes":{"NORMAL":10,"POSITION":9},"indices":11,"material":3,"mode":4}]},{"name":"GeodeCube.001","primitives":[{"attributes":{"NORMAL":13,"POSITION":12},"indices":14,"material":2,"mode":4}]},{"name":"GeodePlane.001","primitives":[{"attributes":{"NORMAL":16,"POSITION":15},"indices":17,"material":1,"mode":4}]},{"name":"GeodeCircle.002","primitives":[{"attributes":{"NORMAL":19,"POSITION":18},"indices":20,"material":0,"mode":4}]}],"nodes":[{"children":[1],"name":"RootNode (gltf orientation matrix)","rotation":[-0.70710678118654746,-0,-0,0.70710678118654757]},{"children":[2],"name":"RootNode (model correction matrix)"},{"children":[3,5,7,9,11,13,15,17,19,21],"name":"Root"},{"children":[4],"matrix":[-1.13466,0,-0,0,0,0.085440000000000016,0,0,0,0,-1.13466,0,0.17224000000000003,-0.040150000000000012,4.3997799999999998,1],"name":"Plane.003"},{"mesh":0,"name":"GeodePlane.004"},{"children":[6],"matrix":[-1.13466,0,-0,0,0,0.10991000000000001,0,0,0,0,-1.13466,0,0.17224000000000003,-0.040150000000000012,4.3997799999999998,1],"name":"Plane.002"},{"mesh":1,"name":"GeodePlane.003"},{"children":[8],"matrix":[0,0,-1.2884599999999999,0,0,0.10191,0,0,1.2884599999999999,0,0,0,0.17224000000000003,-0.040150000000000012,4.3997799999999998,1],"name":"Plane.001"},{"mesh":2,"name":"GeodePlane.002"},{"children":[10],"matrix":[1,0,0,0,0,1,0,0,0,0,1,0,0.0080700000000000025,0.25813999999999998,0.35276000000000002,1],"name":"Circle"},{"mesh":3,"name":"GeodeCircle.001"},{"children":[12],"matrix":[1.2430599999999998,0,0,0,0,1.2430599999999998,0,0,0,0,1.5736299999999999,0,0.11018000000000001,0.87553000000000003,4.34396,1],"name":"Cube"},{"mesh":4,"name":"GeodeCube.001"},{"children":[14],"matrix":[0,0,-1,0,0,1,0,0,1,0,0,0,-6.2399600000000008,-0,-3.2609600000000003,1],"name":"Hemi"},{"name":"Hemi"},{"children":[16],"matrix":[1,0,0,0,0,1,0,0,0,0,1,0,-0.11966000000000003,-0,-3.3709099999999999,1],"name":"Hemi.001"},{"name":"Hemi.001"},{"children":[18],"matrix":[0,0,1,0,0,1,0,0,-1,0,0,0,6.9286700000000003,-0,-3.6086200000000002,1],"name":"Hemi.002"},{"name":"Hemi.002"},{"children":[20],"matrix":[0,0,-1.2884599999999999,0,0,0.058620000000000012,0,0,1.2884599999999999,0,0,0,0.17224000000000003,-0.040150000000000012,4.3997799999999998,1],"name":"Plane"},{"mesh":5,"name":"GeodePlane.001"},{"children":[22],"matrix":[0.49449000000000004,0,0,0,0,0,0.49449000000000004,0,0,-0.49449000000000004,0,0,0.17224000000000003,-0.040150000000000012,4.3997799999999998,1],"name":"Circle.001"},{"mesh":6,"name":"GeodeCircle.002"}],"scene":0,"scenes":[{"name":"OSG_Scene","nodes":[0]}]}
