{"accessors":[{"bufferView":2,"componentType":5126,"count":5149,"max":[1000,1000,1000],"min":[-1000,-1000,-1000],"type":"VEC3"},{"bufferView":2,"byteOffset":61788,"componentType":5126,"count":5149,"max":[1,1,1],"min":[-1,-1,-1],"type":"VEC3"},{"bufferView":1,"componentType":5126,"count":5149,"max":[1,1],"min":[0,0],"type":"VEC2"},{"bufferView":3,"componentType":5126,"count":5149,"max":[1,0.015678722411394119,1,1],"min":[-1,-0.015678806230425835,-1,1],"type":"VEC4"},{"bufferView":0,"componentType":5125,"count":29400,"max":[5148],"min":[0],"type":"SCALAR"}],"asset":{"generator":"Sketchfab (OSG glTF plugin)","version":"2.0"},"bufferViews":[{"buffer":0,"byteLength":117600,"byteOffset":0,"name":"ScalarBufferView","target":34962},{"buffer":0,"byteLength":41192,"byteOffset":117600,"byteStride":8,"name":"Vec2BufferView","target":34962},{"buffer":0,"byteLength":123576,"byteOffset":158792,"byteStride":12,"name":"Vec3BufferView","target":34962},{"buffer":0,"byteLength":82384,"byteOffset":282368,"byteStride":16,"name":"Vec4BufferView","target":34962}],"buffers":[{"byteLength":364752,"uri":"scene.bin"}],"extensionsRequired":["KHR_materials_pbrSpecularGlossiness"],"extensionsUsed":["KHR_materials_pbrSpecularGlossiness"],"images":[{"uri":"textures\/Mat_diffuse.png"},{"uri":"textures\/Mat_emissive.png"}],"materials":[{"doubleSided":true,"emissiveFactor":[0.69999999999999996,0.69999999999999996,0.69999999999999996],"emissiveTexture":{"index":1,"texCoord":0},"extensions":{"KHR_materials_pbrSpecularGlossiness":{"diffuseFactor":[1,1,1,1],"diffuseTexture":{"index":0,"texCoord":0},"glossinessFactor":0,"specularFactor":[0,0,0]}},"name":"Mat","occlusionFactor":1}],"meshes":[{"name":"Esfera","primitives":[{"attributes":{"NORMAL":1,"POSITION":0,"TANGENT":3,"TEXCOORD_0":2},"indices":4,"material":0,"mode":4}]}],"nodes":[{"children":[1],"name":"RootNode (gltf orientation matrix)","rotation":[-0.70710678118654746,-0,-0,0.70710678118654757]},{"children":[2],"name":"RootNode (model correction matrix)"},{"children":[3],"matrix":[1,0,0,0,0,0,1,0,0,-1,0,0,0,0,0,1],"name":"HW Vir C.fbx"},{"children":[4,6,9],"name":"RootNode"},{"children":[5],"matrix":[0.93890196615671062,-0.14262861700184082,-0.31324140141303991,0,0.13529753349982804,0.98977627654543332,-0.045138673182989246,0,0.3164769744798599,-5.5511151231257827e-17,0.9486001921906162,0,-3318.9345703125,492.82992553710938,969.80474853515625,1],"name":"Cinema_4D_Editor"},{"name":""},{"children":[7],"matrix":[1,0,0,0,0,2.2204460492503131e-16,1,0,0,-1,2.2204460492503131e-16,0,0,0,0,1],"name":"Luz"},{"children":[8],"matrix":[1,0,0,0,0,2.2204460492503131e-16,1,0,0,-1,2.2204460492503131e-16,0,0,0,0,1],"name":""},{"name":""},{"children":[10],"name":"Esfera"},{"mesh":0,"name":"Esfera"}],"samplers":[{"magFilter":9729,"minFilter":9987,"wrapS":10497,"wrapT":10497}],"scene":0,"scenes":[{"name":"OSG_Scene","nodes":[0]}],"textures":[{"sampler":0,"source":0},{"sampler":0,"source":1}]}
