{
  "accessors": [
    {
      "bufferView": 2,
      "componentType": 5126,
      "count": 368,
      "max": [
        0.10964268445968628,
        0.30001378059387207,
        0.66973757743835449
      ],
      "min": [
        -0.0069225430488586426,
        -0.26828813552856445,
        -0.0015309453010559082
      ],
      "type": "VEC3"
    },
    {
      "bufferView": 2,
      "byteOffset": 4416,
      "componentType": 5126,
      "count": 368,
      "max": [
        1,
        1,
        1
      ],
      "min": [
        -1,
        -1,
        -1
      ],
      "type": "VEC3"
    },
    {
      "bufferView": 1,
      "componentType": 5126,
      "count": 368,
      "max": [
        0.99855500459671021,
        0.49599775671958923
      ],
      "min": [
        0.0046758204698562622,
        0.0055153146386146545
      ],
      "type": "VEC2"
    },
    {
      "bufferView": 3,
      "componentType": 5126,
      "count": 368,
      "max": [
        0.99998021125793457,
        1,
        0.99999988079071045,
        1
      ],
      "min": [
        -0.99936288595199585,
        -0.99999988079071045,
        -1,
        1
      ],
      "type": "VEC4"
    },
    {
      "bufferView": 0,
      "componentType": 5125,
      "count": 468,
      "max": [
        367
      ],
      "min": [
        0
      ],
      "type": "SCALAR"
    },
    {
      "bufferView": 2,
      "byteOffset": 8832,
      "componentType": 5126,
      "count": 379,
      "max": [
        1.3931756019592285,
        0.99960619211196899,
        1.3429528474807739
      ],
      "min": [
        -0.97753381729125977,
        -1.0003938674926758,
        -1.2397850751876831
      ],
      "type": "VEC3"
    },
    {
      "bufferView": 2,
      "byteOffset": 13380,
      "componentType": 5126,
      "count": 379,
      "max": [
        0,
        1,
        1
      ],
      "min": [
        -1,
        -1,
        -1
      ],
      "type": "VEC3"
    },
    {
      "bufferView": 1,
      "byteOffset": 2944,
      "componentType": 5126,
      "count": 379,
      "max": [
        0.23930208384990692,
        0.99952316284179688
      ],
      "min": [
        0.01165720634162426,
        0.6352425217628479
      ],
      "type": "VEC2"
    },
    {
      "bufferView": 3,
      "byteOffset": 5888,
      "componentType": 5126,
      "count": 379,
      "max": [
        0.99966573715209961,
        0,
        0.24779854714870453,
        1
      ],
      "min": [
        -0.99979549646377563,
        -1,
        -0.47194066643714905,
        1
      ],
      "type": "VEC4"
    },
    {
      "bufferView": 0,
      "byteOffset": 1872,
      "componentType": 5125,
      "count": 726,
      "max": [
        378
      ],
      "min": [
        0
      ],
      "type": "SCALAR"
    },
    {
      "bufferView": 2,
      "byteOffset": 17928,
      "componentType": 5126,
      "count": 904,
      "max": [
        1.3511447906494141,
        2.4488639831542969,
        6.8083691596984863
      ],
      "min": [
        -1.3511524200439453,
        -2.8237495422363281,
        -6.5308089256286621
      ],
      "type": "VEC3"
    },
    {
      "bufferView": 2,
      "byteOffset": 28776,
      "componentType": 5126,
      "count": 904,
      "max": [
        1,
        1,
        0.9012102484703064
      ],
      "min": [
        -1,
        -0.89249974489212036,
        -0.88653504848480225
      ],
      "type": "VEC3"
    },
    {
      "bufferView": 1,
      "byteOffset": 5976,
      "componentType": 5126,
      "count": 904,
      "max": [
        0.99125432968139648,
        0.98776841163635254
      ],
      "min": [
        0.25176289677619934,
        0.38887590169906616
      ],
      "type": "VEC2"
    },
    {
      "bufferView": 3,
      "byteOffset": 11952,
      "componentType": 5126,
      "count": 904,
      "max": [
        0.98284691572189331,
        0.99955028295516968,
        0.40047669410705566,
        1
      ],
      "min": [
        -0.99981623888015747,
        -0.99999994039535522,
        -0.91810929775238037,
        -1
      ],
      "type": "VEC4"
    },
    {
      "bufferView": 0,
      "byteOffset": 4776,
      "componentType": 5125,
      "count": 912,
      "max": [
        903
      ],
      "min": [
        0
      ],
      "type": "SCALAR"
    },
    {
      "bufferView": 2,
      "byteOffset": 39624,
      "componentType": 5126,
      "count": 827,
      "max": [
        1.3498823642730713,
        3.188140869140625,
        6.6355915069580078
      ],
      "min": [
        -1.3498921394348145,
        -2.3059113025665283,
        -6.6950531005859375
      ],
      "type": "VEC3"
    },
    {
      "bufferView": 2,
      "byteOffset": 49548,
      "componentType": 5126,
      "count": 827,
      "max": [
        1,
        0.90569525957107544,
        0.91223949193954468
      ],
      "min": [
        -1,
        -1,
        -0.88355666399002075
      ],
      "type": "VEC3"
    },
    {
      "bufferView": 1,
      "byteOffset": 13208,
      "componentType": 5126,
      "count": 827,
      "max": [
        0.74283111095428467,
        0.98903435468673706
      ],
      "min": [
        0.381744384765625,
        0.45246154069900513
      ],
      "type": "VEC2"
    },
    {
      "bufferView": 3,
      "byteOffset": 26416,
      "componentType": 5126,
      "count": 827,
      "max": [
        0.99991589784622192,
        0.99959230422973633,
        0.44884932041168213,
        1
      ],
      "min": [
        -0.9071696400642395,
        -0.99999916553497314,
        -0.52546876668930054,
        -1
      ],
      "type": "VEC4"
    },
    {
      "bufferView": 0,
      "byteOffset": 8424,
      "componentType": 5125,
      "count": 840,
      "max": [
        826
      ],
      "min": [
        0
      ],
      "type": "SCALAR"
    },
    {
      "bufferView": 2,
      "byteOffset": 59472,
      "componentType": 5126,
      "count": 379,
      "max": [
        1.3931756019592285,
        0.99960619211196899,
        1.3429528474807739
      ],
      "min": [
        -0.97753381729125977,
        -1.0003938674926758,
        -1.2397850751876831
      ],
      "type": "VEC3"
    },
    {
      "bufferView": 2,
      "byteOffset": 64020,
      "componentType": 5126,
      "count": 379,
      "max": [
        0,
        1,
        1
      ],
      "min": [
        -1,
        -1,
        -1
      ],
      "type": "VEC3"
    },
    {
      "bufferView": 1,
      "byteOffset": 19824,
      "componentType": 5126,
      "count": 379,
      "max": [
        0.23930208384990692,
        0.99952316284179688
      ],
      "min": [
        0.01165720634162426,
        0.6352425217628479
      ],
      "type": "VEC2"
    },
    {
      "bufferView": 3,
      "byteOffset": 39648,
      "componentType": 5126,
      "count": 379,
      "max": [
        0.99966573715209961,
        0,
        0.24779854714870453,
        1
      ],
      "min": [
        -0.99979549646377563,
        -1,
        -0.47194066643714905,
        1
      ],
      "type": "VEC4"
    },
    {
      "bufferView": 0,
      "byteOffset": 11784,
      "componentType": 5125,
      "count": 726,
      "max": [
        378
      ],
      "min": [
        0
      ],
      "type": "SCALAR"
    },
    {
      "bufferView": 2,
      "byteOffset": 68568,
      "componentType": 5126,
      "count": 368,
      "max": [
        0.10964268445968628,
        0.30001378059387207,
        0.66973757743835449
      ],
      "min": [
        -0.0069225430488586426,
        -0.26828813552856445,
        -0.0015309453010559082
      ],
      "type": "VEC3"
    },
    {
      "bufferView": 2,
      "byteOffset": 72984,
      "componentType": 5126,
      "count": 368,
      "max": [
        1,
        1,
        1
      ],
      "min": [
        -1,
        -1,
        -1
      ],
      "type": "VEC3"
    },
    {
      "bufferView": 1,
      "byteOffset": 22856,
      "componentType": 5126,
      "count": 368,
      "max": [
        0.99855500459671021,
        0.49599775671958923
      ],
      "min": [
        0.0046758204698562622,
        0.0055153146386146545
      ],
      "type": "VEC2"
    },
    {
      "bufferView": 3,
      "byteOffset": 45712,
      "componentType": 5126,
      "count": 368,
      "max": [
        0.99998021125793457,
        1,
        0.99999988079071045,
        1
      ],
      "min": [
        -0.99936288595199585,
        -0.99999988079071045,
        -1,
        1
      ],
      "type": "VEC4"
    },
    {
      "bufferView": 0,
      "byteOffset": 14688,
      "componentType": 5125,
      "count": 468,
      "max": [
        367
      ],
      "min": [
        0
      ],
      "type": "SCALAR"
    }
  ],
  "asset": {
    "generator": "Sketchfab (OSG glTF plugin)",
    "version": "2.0"
  },
  "bufferViews": [
    {
      "buffer": 0,
      "byteLength": 16560,
      "byteOffset": 0,
      "name": "ScalarBufferView",
      "target": 34963
    },
    {
      "buffer": 0,
      "byteLength": 25800,
      "byteOffset": 16560,
      "byteStride": 8,
      "name": "Vec3BufferView",
      "target": 34962
    },
    {
      "buffer": 0,
      "byteLength": 77400,
      "byteOffset": 42360,
      "byteStride": 12,
      "name": "Vec4BufferView",
      "target": 34962
    },
    {
      "buffer": 0,
      "byteLength": 51600,
      "byteOffset": 119760,
      "byteStride": 16,
      "name": "MatrixBufferView",
      "target": 34962
    }
  ],
  "buffers": [
    {
      "byteLength": 171360,
      "uri": "scene.bin"
    }
  ],
  "images": [
    {
      "uri": "textures/door_baseColor.jpeg"
    }
  ],
  "materials": [
    {
      "doubleSided": false,
      "name": "door",
      "pbrMetallicRoughness": {
        "baseColorFactor": [
          1,
          1,
          1,
          1
        ],
        "baseColorTexture": {
          "index": 0,
          "texCoord": 0
        },
        "metallicFactor": 0.26391006099999997,
        "roughnessFactor": 0.59927591459999996
      }
    }
  ],
  "meshes": [
    {
      "name": "door_outer",
      "primitives": [
        {
          "attributes": {
            "NORMAL": 1,
            "POSITION": 0,
            "TANGENT": 3,
            "TEXCOORD_0": 2
          },
          "indices": 4,
          "material": 0,
          "mode": 4
        }
      ]
    },
    {
      "name": "door_controls_back",
      "primitives": [
        {
          "attributes": {
            "NORMAL": 6,
            "POSITION": 5,
            "TANGENT": 8,
            "TEXCOORD_0": 7
          },
          "indices": 9,
          "material": 0,
          "mode": 4
        }
      ]
    },
    {
      "name": "door_right",
      "primitives": [
        {
          "attributes": {
            "NORMAL": 11,
            "POSITION": 10,
            "TANGENT": 13,
            "TEXCOORD_0": 12
          },
          "indices": 14,
          "material": 0,
          "mode": 4
        }
      ]
    },
    {
      "name": "door_left",
      "primitives": [
        {
          "attributes": {
            "NORMAL": 16,
            "POSITION": 15,
            "TANGENT": 18,
            "TEXCOORD_0": 17
          },
          "indices": 19,
          "material": 0,
          "mode": 4
        }
      ]
    },
    {
      "name": "door_controls",
      "primitives": [
        {
          "attributes": {
            "NORMAL": 21,
            "POSITION": 20,
            "TANGENT": 23,
            "TEXCOORD_0": 22
          },
          "indices": 24,
          "material": 0,
          "mode": 4
        }
      ]
    },
    {
      "name": "door_outer_back",
      "primitives": [
        {
          "attributes": {
            "NORMAL": 26,
            "POSITION": 25,
            "TANGENT": 28,
            "TEXCOORD_0": 27
          },
          "indices": 29,
          "material": 0,
          "mode": 4
        }
      ]
    }
  ],
  "nodes": [
    {
      "children": [
        1
      ],
      "name": "RootNode (gltf orientation matrix)",
      "rotation": [
        -0.70710678118654746,
        -0,
        -0,
        0.70710678118654757
      ]
    },
    {
      "children": [
        2
      ],
      "name": "RootNode (model correction matrix)"
    },
    {
      "children": [
        3
      ],
      "matrix": [
        1,
        0,
        0,
        0,
        0,
        0,
        1,
        0,
        0,
        -1,
        0,
        0,
        0,
        0,
        0,
        1
      ],
      "name": "spaceship_door.fbx"
    },
    {
      "children": [
        4
      ],
      "name": ""
    },
    {
      "children": [
        5
      ],
      "name": "RootNode"
    },
    {
      "children": [
        6,
        8,
        10,
        12,
        14,
        16
      ],
      "matrix": [
        100,
        0,
        0,
        0,
        0,
        -4.3711390063094768e-06,
        -99.999999999999901,
        0,
        0,
        99.999999999999901,
        -4.3711390063094768e-06,
        0,
        10.948741912841797,
        17.479770660400391,
        -21.859359741210938,
        1
      ],
      "name": "door_root"
    },
    {
      "children": [
        7
      ],
      "matrix": [
        22.721210479736328,
        0,
        0,
        0,
        0,
        22.721210479736328,
        -2.1175823681357513e-22,
        0,
        0,
        2.1175823681357513e-22,
        22.721210479736328,
        0,
        0.11596310138702393,
        0.4011383056640625,
        -0.071195855736732483,
        1
      ],
      "name": "door_outer"
    },
    {
      "mesh": 0,
      "name": "door_outer"
    },
    {
      "children": [
        9
      ],
      "matrix": [
        -0.23063629865644622,
        -8.9813090626669498e-08,
        7.8886090522101233e-31,
        0,
        2.8524898566453135e-07,
        -0.73250758647913172,
        1.3234889800848449e-23,
        0,
        -2.648411212478848e-30,
        1.3234889800848422e-23,
        0.73250758647918701,
        0,
        2.7264900207519531,
        5.9393272399902344,
        7.5208525657653809,
        1
      ],
      "name": "door_controls_back"
    },
    {
      "mesh": 1,
      "name": "door_controls_back"
    },
    {
      "children": [
        11
      ],
      "matrix": [
        1,
        0,
        0,
        0,
        0,
        1,
        -1.3234889800848443e-23,
        0,
        0,
        1.3234889800848443e-23,
        1,
        0,
        0.10190403461456299,
        -1.6225433349609375,
        6.8430976867675781,
        1
      ],
      "name": "door_right"
    },
    {
      "mesh": 2,
      "name": "door_right"
    },
    {
      "children": [
        13
      ],
      "matrix": [
        1,
        0,
        0,
        0,
        0,
        1,
        -1.3234889800848443e-23,
        0,
        0,
        1.3234889800848443e-23,
        1,
        0,
        0.10064709186553955,
        1.6505699157714844,
        7.0121650695800781,
        1
      ],
      "name": "door_left"
    },
    {
      "mesh": 3,
      "name": "door_left"
    },
    {
      "children": [
        15
      ],
      "matrix": [
        0.23063629865646362,
        0,
        0,
        0,
        0,
        0.73250758647918701,
        -1.3234889800848443e-23,
        0,
        0,
        1.3234889800848443e-23,
        0.73250758647918701,
        0,
        -2.4762306213378906,
        -5.4837913513183594,
        7.5208525657653809,
        1
      ],
      "name": "door_controls"
    },
    {
      "mesh": 4,
      "name": "door_controls"
    },
    {
      "children": [
        17
      ],
      "matrix": [
        -22.721210479736076,
        -3.4308073328579374e-06,
        5.0487097934144767e-29,
        0,
        3.4308073328579374e-06,
        -22.721210479736076,
        2.1175823681357508e-22,
        0,
        1.8512493750929409e-29,
        2.117582368135803e-22,
        22.721210479736328,
        0,
        -0.0095251798629760742,
        0.11478424072265625,
        -0.071195855736732483,
        1
      ],
      "name": "door_outer_back"
    },
    {
      "mesh": 5,
      "name": "door_outer_back"
    }
  ],
  "samplers": [
    {
      "magFilter": 9729,
      "minFilter": 9987,
      "wrapS": 10497,
      "wrapT": 10497
    }
  ],
  "scene": 0,
  "scenes": [
    {
      "name": "OSG_Scene",
      "nodes": [
        0
      ]
    }
  ],
  "textures": [
    {
      "sampler": 0,
      "source": 0
    }
  ]
}

