{"accessors":[{"bufferView":2,"componentType":5126,"count":300,"max":[0.64122498035430908,0.62289297580718994,0.068957999348640442],"min":[-0.63832300901412964,-0.62654697895050049,-0.21330100297927856],"type":"VEC3"},{"bufferView":2,"byteOffset":3600,"componentType":5126,"count":300,"max":[1,1,1],"min":[-1,-1,-0.9995998740196228],"type":"VEC3"},{"bufferView":1,"componentType":5126,"count":300,"max":[0.98860001564025879,0.98860001564025879],"min":[0.011400000192224979,0.011400000192224979],"type":"VEC2"},{"bufferView":3,"componentType":5126,"count":300,"max":[0.99979805946350098,0.99518656730651855,0.73073369264602661,1],"min":[-1,-0.99518662691116333,-1,1],"type":"VEC4"},{"bufferView":0,"componentType":5125,"count":546,"max":[299],"min":[0],"type":"SCALAR"}],"asset":{"generator":"Sketchfab (OSG glTF plugin)","version":"2.0"},"bufferViews":[{"buffer":0,"byteLength":2184,"byteOffset":0,"name":"ScalarBufferView","target":34962},{"buffer":0,"byteLength":2400,"byteOffset":2184,"byteStride":8,"name":"Vec2BufferView","target":34962},{"buffer":0,"byteLength":7200,"byteOffset":4584,"byteStride":12,"name":"Vec3BufferView","target":34962},{"buffer":0,"byteLength":4800,"byteOffset":11784,"byteStride":16,"name":"Vec4BufferView","target":34962}],"buffers":[{"byteLength":16584,"uri":"scene.bin"}],"images":[{"uri":"textures\/Material.001_baseColor.png"}],"materials":[{"doubleSided":true,"emissiveFactor":[0,0,0],"name":"Material.001","pbrMetallicRoughness":{"baseColorFactor":[1,1,1,1],"baseColorTexture":{"index":0,"texCoord":0},"metallicFactor":0,"roughnessFactor":0.84349154199999998}}],"meshes":[{"name":"Cylinder","primitives":[{"attributes":{"NORMAL":1,"POSITION":0,"TANGENT":3,"TEXCOORD_0":2},"indices":4,"material":0,"mode":4}]}],"nodes":[{"children":[1],"name":"RootNode (gltf orientation matrix)","rotation":[-0.70710678118654746,-0,-0,0.70710678118654757]},{"children":[2],"name":"RootNode (model correction matrix)"},{"children":[3],"name":"button.obj.cleaner.materialmerger.gles"},{"mesh":0,"name":"Cylinder"}],"samplers":[{"magFilter":9729,"minFilter":9987,"wrapS":10497,"wrapT":10497}],"scene":0,"scenes":[{"name":"OSG_Scene","nodes":[0]}],"textures":[{"sampler":0,"source":0}]}
