{"accessors":[{"bufferView":1,"componentType":5126,"count":264,"max":[53.472587585449219,110.58255004882812,150.01699829101562],"min":[-53.472583770751953,-50.000068664550781,-108.15167999267578],"type":"VEC3"},{"bufferView":1,"byteOffset":3168,"componentType":5126,"count":264,"max":[1,1,1],"min":[-1,-1,-1],"type":"VEC3"},{"bufferView":2,"componentType":5126,"count":264,"max":[1,1,1,1],"min":[-0.025809794664382935,-0.04116487130522728,-1,1],"type":"VEC4"},{"bufferView":0,"componentType":5125,"count":504,"max":[263],"min":[0],"type":"SCALAR"},{"bufferView":1,"byteOffset":6336,"componentType":5126,"count":4,"max":[16.666662216186523,52.018726348876953,67.866371154785156],"min":[-16.666660308837891,37.531848907470703,50.571128845214844],"type":"VEC3"},{"bufferView":1,"byteOffset":6384,"componentType":5126,"count":4,"max":[9.5354259599389479e-08,0.76660192012786865,0.64212280511856079],"min":[9.5354245388534764e-08,0.76660186052322388,0.64212268590927124],"type":"VEC3"},{"bufferView":2,"byteOffset":4224,"componentType":5126,"count":4,"max":[0,0,0,1],"min":[0,0,0,1],"type":"VEC4"},{"bufferView":0,"byteOffset":2016,"componentType":5125,"count":6,"max":[3],"min":[0],"type":"SCALAR"},{"bufferView":1,"byteOffset":6432,"componentType":5126,"count":230,"max":[100,100,100.00001525878906],"min":[-100.00002288818359,0,-100.00004577636719],"type":"VEC3"},{"bufferView":1,"byteOffset":9192,"componentType":5126,"count":230,"max":[0.99691736698150635,1,0.99691736698150635],"min":[-0.99691736698150635,0.078458741307258606,-0.99691742658615112],"type":"VEC3"},{"bufferView":2,"byteOffset":4288,"componentType":5126,"count":230,"max":[1,0.078690558671951294,1,1],"min":[-1,-0.078690566122531891,-1,1],"type":"VEC4"},{"bufferView":0,"byteOffset":2040,"componentType":5125,"count":1140,"max":[229],"min":[0],"type":"SCALAR"},{"bufferView":1,"byteOffset":11952,"componentType":5126,"count":230,"max":[100,100,100.00001525878906],"min":[-100.00002288818359,0,-100.00004577636719],"type":"VEC3"},{"bufferView":1,"byteOffset":14712,"componentType":5126,"count":230,"max":[0.99691736698150635,1,0.99691736698150635],"min":[-0.99691736698150635,0.078458741307258606,-0.99691742658615112],"type":"VEC3"},{"bufferView":2,"byteOffset":7968,"componentType":5126,"count":230,"max":[1,0.078690558671951294,1,1],"min":[-1,-0.078690566122531891,-1,1],"type":"VEC4"},{"bufferView":0,"byteOffset":6600,"componentType":5125,"count":1140,"max":[229],"min":[0],"type":"SCALAR"}],"asset":{"generator":"Sketchfab (OSG glTF plugin)","version":"2.0"},"bufferViews":[{"buffer":0,"byteLength":11160,"byteOffset":0,"name":"ScalarBufferView","target":34962},{"buffer":0,"byteLength":17472,"byteOffset":11160,"byteStride":12,"name":"Vec3BufferView","target":34962},{"buffer":0,"byteLength":11648,"byteOffset":28632,"byteStride":16,"name":"Vec4BufferView","target":34962}],"buffers":[{"byteLength":40280,"uri":"scene.bin"}],"materials":[{"doubleSided":true,"emissiveFactor":[0,0,0],"name":"lambert1","pbrMetallicRoughness":{"baseColorFactor":[0.5,0.5,0.5,1],"metallicFactor":0,"roughnessFactor":0.59999999999999998}},{"doubleSided":true,"emissiveFactor":[0,0,0],"name":"lambert2","pbrMetallicRoughness":{"baseColorFactor":[1,1,1,1],"metallicFactor":0,"roughnessFactor":0.59999999999999998}}],"meshes":[{"name":"pCube1","primitives":[{"attributes":{"NORMAL":1,"POSITION":0,"TANGENT":2},"indices":3,"material":0,"mode":4},{"attributes":{"NORMAL":5,"POSITION":4,"TANGENT":6},"indices":7,"material":1,"mode":4}]},{"name":"pSphere3","primitives":[{"attributes":{"NORMAL":9,"POSITION":8,"TANGENT":10},"indices":11,"material":0,"mode":4}]},{"name":"pSphere4","primitives":[{"attributes":{"NORMAL":13,"POSITION":12,"TANGENT":14},"indices":15,"material":0,"mode":4}]}],"nodes":[{"children":[1],"name":"RootNode (gltf orientation matrix)","rotation":[-0.70710678118654746,-0,-0,0.70710678118654757]},{"children":[2],"name":"RootNode (model correction matrix)"},{"children":[3],"matrix":[1,0,0,0,0,0,1,0,0,-1,0,0,0,0,0,1],"name":"08c10ef3d1704eadbadbf259a6005106.fbx"},{"children":[4,6,8],"name":"RootNode"},{"children":[5],"matrix":[0.098293010467772599,-0.00076850365821619555,0.00074235472592011436,0,0.00018608600737438739,0.023760852479004817,-4.1289988782811512e-05,0,-0.00017911964765436538,4.2692874822432096e-05,0.02376090353636846,0,-3.2691700498969348e-21,1.1829612255096436,4.3366784089955406e-19,1],"name":"pCube1"},{"mesh":0,"name":"pCube1"},{"children":[7],"matrix":[0.0015858231345191598,0,0,0,0,0.0015858231345191598,0,0,0,0,0.0015858231345191598,0,1.0350131988525391,2.4569952487945557,-0.93169647455215454,1],"name":"pSphere3"},{"mesh":1,"name":"pSphere3"},{"children":[9],"matrix":[0.0015858231345191598,0,0,0,0,0.0015858231345191598,0,0,0,0,0.0015858231345191598,0,1.4142701625823975,2.4569952487945557,-0.92833453416824341,1],"name":"pSphere4"},{"mesh":2,"name":"pSphere4"}],"scene":0,"scenes":[{"name":"OSG_Scene","nodes":[0]}]}
